<?xml version="1.0" encoding="UTF-8" standalone="no"?>
<svg
   width="1352.28"
   height="318.772"
   viewBox="0 0 1352.28 318.772"
   fill="none"
   version="1.1"
   id="svg282"
   sodipodi:docname="vuetify.svg"
   inkscape:version="1.2.2 (b0a8486, 2022-12-01)"
   xmlns:inkscape="http://www.inkscape.org/namespaces/inkscape"
   xmlns:sodipodi="http://sodipodi.sourceforge.net/DTD/sodipodi-0.dtd"
   xmlns="http://www.w3.org/2000/svg"
   xmlns:svg="http://www.w3.org/2000/svg">
  <defs
     id="defs286" />
  <sodipodi:namedview
     id="namedview284"
     pagecolor="#ffffff"
     bordercolor="#000000"
     borderopacity="0.25"
     inkscape:showpageshadow="2"
     inkscape:pageopacity="0.0"
     inkscape:pagecheckerboard="0"
     inkscape:deskcolor="#d1d1d1"
     showgrid="false"
     inkscape:zoom="1.3037694"
     inkscape:cx="676.5"
     inkscape:cy="159.53741"
     inkscape:window-width="1920"
     inkscape:window-height="928"
     inkscape:window-x="0"
     inkscape:window-y="25"
     inkscape:window-maximized="1"
     inkscape:current-layer="svg282" />
  <path
     d="M 187.897,71.248 114.523,198.363 184,318.772 276.021,159.386 368,0 H 229.005 Z"
     fill="#1697f6"
     id="path272" />
  <path
     d="m 92.0209,159.386 4.8189,8.382 L 165.478,48.8258 193.68,0 H 184 0 Z"
     fill="#aeddff"
     id="path274" />
  <path
     d="M 229.005,0 C 263.785,114.458 184,318.772 184,318.772 L 114.523,198.363 Z"
     fill="#1867c0"
     id="path276" />
  <path
     d="M 193.68,0 C 47.1426,0 96.8405,167.768 96.8405,167.768 Z"
     fill="#7bc6ff"
     id="path278" />
  <path
     d="m 492.935,207 h -36.07 L 398.835,92.2764 h 34.567 l 41.748,86.3346 41.665,-86.3346 h 34.567 z m 212.748,-38.659 c 0,5.734 -1.419,11.133 -4.258,16.199 -2.839,5.065 -7.097,9.49 -12.775,13.275 -5.678,3.786 -12.775,6.791 -21.292,9.018 -8.461,2.171 -18.369,3.256 -29.724,3.256 -11.356,0 -21.32,-1.085 -29.892,-3.256 -8.516,-2.227 -15.614,-5.232 -21.291,-9.018 -5.678,-3.785 -9.936,-8.21 -12.775,-13.275 -2.839,-5.066 -4.259,-10.465 -4.259,-16.199 V 92.2764 h 30.894 v 64.9596 c 0,3.841 0.473,7.487 1.419,10.938 1.002,3.396 2.839,6.374 5.511,8.934 2.728,2.561 6.513,4.593 11.356,6.096 4.898,1.503 11.244,2.254 19.037,2.254 7.737,0 14.027,-0.751 18.87,-2.254 4.843,-1.503 8.6,-3.535 11.272,-6.096 2.727,-2.56 4.564,-5.538 5.511,-8.934 0.946,-3.451 1.419,-7.097 1.419,-10.938 V 92.2764 h 30.977 z M 740.751,207 V 92.2764 h 116.144 v 24.4646 h -84.332 v 18.953 h 79.99 v 24.465 h -79.99 v 22.377 h 85.5 V 207 Z m 211.58,-89.758 V 207 H 921.354 V 117.242 H 872.675 V 92.2764 H 1001.09 V 117.242 Z M 1021.63,207 V 92.2764 h 30.98 V 207 Z m 97.94,-90.259 v 19.955 h 74.57 v 24.465 h -74.57 V 207 H 1088.6 V 92.2764 h 109.63 v 24.4646 z m 177.1,43.418 V 207 h -30.9 v -46.841 l -55.6,-67.8826 h 34.73 l 36.41,46.1736 36.23,-46.1736 h 34.74 z"
     fill="#000000"
     fill-opacity="0.87"
     id="path280" />
</svg>
