<?xml version="1.0" encoding="UTF-8" standalone="no"?>
<svg
   height="40"
   viewBox="0 -960 800 800"
   width="40"
   version="1.1"
   id="svg119"
   sodipodi:docname="add_circle.svg"
   inkscape:version="1.2.2 (b0a8486, 2022-12-01)"
   xmlns:inkscape="http://www.inkscape.org/namespaces/inkscape"
   xmlns:sodipodi="http://sodipodi.sourceforge.net/DTD/sodipodi-0.dtd"
   xmlns="http://www.w3.org/2000/svg"
   xmlns:svg="http://www.w3.org/2000/svg">
  <defs
     id="defs123" />
  <sodipodi:namedview
     id="namedview121"
     pagecolor="#ffffff"
     bordercolor="#000000"
     borderopacity="0.25"
     inkscape:showpageshadow="2"
     inkscape:pageopacity="0.0"
     inkscape:pagecheckerboard="0"
     inkscape:deskcolor="#d1d1d1"
     showgrid="false"
     inkscape:zoom="12.583333"
     inkscape:cx="20.02649"
     inkscape:cy="20.02649"
     inkscape:window-width="1920"
     inkscape:window-height="928"
     inkscape:window-x="0"
     inkscape:window-y="25"
     inkscape:window-maximized="1"
     inkscape:current-layer="svg119" />
  <path
     d="m 373,-360 h 60 v -166 h 167 v -60 H 433 v -174 h -60 v 174 H 200 v 60 h 173 z m 27.266,200 q -82.734,0 -155.5,-31.5 Q 172,-223 117.5,-277.5 63,-332 31.5,-404.841 0,-477.681 0,-560.5 0,-643.319 31.5,-716.159 63,-789 117.5,-843 172,-897 244.841,-928.5 317.681,-960 400.5,-960 q 82.819,0 155.659,31.5 Q 629,-897 683,-843 q 54,54 85.5,127 31.5,73 31.5,155.734 0,82.734 -31.5,155.5 Q 737,-332 683,-277.684 q -54,54.316 -127,86 Q 483,-160 400.266,-160 Z m 0.234,-60 q 141.5,0 240.5,-99.5 99,-99.5 99,-241 Q 740,-702 641.188,-801 542.375,-900 400,-900 259,-900 159.5,-801.188 60,-702.375 60,-560 q 0,141 99.5,240.5 99.5,99.5 241,99.5 z M 400,-560 Z"
     id="path117" />
</svg>
