<?xml version="1.0" encoding="UTF-8" standalone="no"?>
<svg
   height="40"
   viewBox="0 -960 800 800"
   width="40"
   version="1.1"
   id="svg210"
   sodipodi:docname="arrow_circle_right.svg"
   inkscape:version="1.2.2 (b0a8486, 2022-12-01)"
   xmlns:inkscape="http://www.inkscape.org/namespaces/inkscape"
   xmlns:sodipodi="http://sodipodi.sourceforge.net/DTD/sodipodi-0.dtd"
   xmlns="http://www.w3.org/2000/svg"
   xmlns:svg="http://www.w3.org/2000/svg">
  <defs
     id="defs214" />
  <sodipodi:namedview
     id="namedview212"
     pagecolor="#ffffff"
     bordercolor="#000000"
     borderopacity="0.25"
     inkscape:showpageshadow="2"
     inkscape:pageopacity="0.0"
     inkscape:pagecheckerboard="0"
     inkscape:deskcolor="#d1d1d1"
     showgrid="false"
     inkscape:zoom="12.583333"
     inkscape:cx="20.02649"
     inkscape:cy="20.02649"
     inkscape:window-width="1920"
     inkscape:window-height="928"
     inkscape:window-x="0"
     inkscape:window-y="25"
     inkscape:window-maximized="1"
     inkscape:current-layer="svg210" />
  <path
     d="m 400,-414 146,-146 -146,-146 -42,42 74,74 H 250 v 60 h 182 l -74,74 z m 0,254 q -82,0 -155,-31.5 -73,-31.5 -127.5,-86 Q 63,-332 31.5,-405 0,-478 0,-560 q 0,-83 31.5,-156 31.5,-73 86,-127 54.5,-54 127.5,-85.5 73,-31.5 155,-31.5 83,0 156,31.5 73,31.5 127,85.5 54,54 85.5,127 31.5,73 31.5,156 0,82 -31.5,155 -31.5,73 -85.5,127.5 -54,54.5 -127,86 -73,31.5 -156,31.5 z m 0,-60 q 142,0 241,-99.5 99,-99.5 99,-240.5 0,-142 -99,-241 -99,-99 -241,-99 -141,0 -240.5,99 -99.5,99 -99.5,241 0,141 99.5,240.5 Q 259,-220 400,-220 Z m 0,-340 z"
     id="path208" />
</svg>
