<?xml version="1.0" encoding="UTF-8" standalone="no"?>
<svg
   height="40"
   viewBox="0 -960 865.99998 800"
   width="43.299999"
   version="1.1"
   id="svg59"
   sodipodi:docname="conditions.svg"
   inkscape:version="1.2.2 (b0a8486, 2022-12-01)"
   xmlns:inkscape="http://www.inkscape.org/namespaces/inkscape"
   xmlns:sodipodi="http://sodipodi.sourceforge.net/DTD/sodipodi-0.dtd"
   xmlns="http://www.w3.org/2000/svg"
   xmlns:svg="http://www.w3.org/2000/svg">
  <defs
     id="defs63" />
  <sodipodi:namedview
     id="namedview61"
     pagecolor="#ffffff"
     bordercolor="#000000"
     borderopacity="0.25"
     inkscape:showpageshadow="2"
     inkscape:pageopacity="0.0"
     inkscape:pagecheckerboard="0"
     inkscape:deskcolor="#d1d1d1"
     showgrid="false"
     inkscape:zoom="12.583333"
     inkscape:cx="22.013245"
     inkscape:cy="20.02649"
     inkscape:window-width="1920"
     inkscape:window-height="928"
     inkscape:window-x="0"
     inkscape:window-y="25"
     inkscape:window-maximized="1"
     inkscape:current-layer="svg59" />
  <path
     d="m 360.08,-814 q -30.08,0 -51.58,-21.42 -21.5,-21.421 -21.5,-51.5 0,-30.08 21.42,-51.58 21.421,-21.5 51.5,-21.5 30.08,0 51.58,21.42 21.5,21.421 21.5,51.5 0,30.08 -21.42,51.58 -21.421,21.5 -51.5,21.5 z m 259.779,504 q 46.141,0 78.141,-31.859 32,-31.859 32,-78 0,-46.141 -31.859,-78.141 -31.859,-32 -78,-32 -46.141,0 -78.141,31.859 -32,31.859 -32,78 0,46.141 31.859,78.141 31.859,32 78,32 z M 824,-174 717,-281 q -22,15 -46.324,23 -24.325,8 -50.676,8 -70.833,0 -120.417,-49.618 Q 450,-349.235 450,-420.118 450,-491 499.618,-540.5 549.235,-590 620.118,-590 691,-590 740.5,-540.417 790,-490.833 790,-420 q 0,26.351 -8,50.676 Q 774,-345 759,-323 l 107,107 z m -417,14 v -173 q 10,25 25,46.5 15,21.5 35,38.5 v 88 z m -154,0 V -693 Q 188.967,-697.583 125.983,-706.292 63,-715 0,-730 l 15,-60 q 85.268,20 171.044,28.5 85.776,8.5 174.09,8.5 88.314,0 174.09,-8.5 Q 620,-770 705,-790 l 15,60 q -63,15 -125.983,23.708 Q 531.033,-697.583 467,-693 v 101 q -35,32 -56,76.5 -21,44.5 -21,95.5 h -77 v 260 z"
     id="path57" />
</svg>
