<?xml version="1.0" encoding="UTF-8" standalone="no"?>
<svg
   height="36"
   viewBox="0 -960 720 720"
   width="36"
   version="1.1"
   id="svg43"
   sodipodi:docname="dark_mode.svg"
   inkscape:version="1.2.2 (b0a8486, 2022-12-01)"
   xmlns:inkscape="http://www.inkscape.org/namespaces/inkscape"
   xmlns:sodipodi="http://sodipodi.sourceforge.net/DTD/sodipodi-0.dtd"
   xmlns="http://www.w3.org/2000/svg"
   xmlns:svg="http://www.w3.org/2000/svg">
  <defs
     id="defs47" />
  <sodipodi:namedview
     id="namedview45"
     pagecolor="#ffffff"
     bordercolor="#000000"
     borderopacity="0.25"
     inkscape:showpageshadow="2"
     inkscape:pageopacity="0.0"
     inkscape:pagecheckerboard="0"
     inkscape:deskcolor="#d1d1d1"
     showgrid="false"
     inkscape:zoom="12.583333"
     inkscape:cx="17.960265"
     inkscape:cy="17.960265"
     inkscape:window-width="1920"
     inkscape:window-height="928"
     inkscape:window-x="0"
     inkscape:window-y="25"
     inkscape:window-maximized="1"
     inkscape:current-layer="svg43" />
  <path
     d="M 360,-240 Q 210,-240 105,-345 0,-450 0,-600 q 0,-150 105,-255 105,-105 255,-105 8,0 17,0.5 9,0.5 23,1.5 -36,32 -56,79 -20,47 -20,99 0,90 63,153 63,63 153,63 52,0 99,-18.5 47,-18.5 79,-51.5 1,12 1.5,19.5 0.5,7.5 0.5,14.5 0,150 -105,255 -105,105 -255,105 z m 0,-60 q 109,0 190,-67.5 81,-67.5 101,-158.5 -25,11 -53.667,16.5 Q 568.667,-504 540,-504 425.311,-504 344.655,-584.655 264,-665.311 264,-780 q 0,-24 5,-51.5 5,-27.5 18,-62.5 -98,27 -162.5,109.5 Q 60,-702 60,-600 60,-475 147.5,-387.5 235,-300 360,-300 Z m -4,-297 z"
     id="path41" />
</svg>
