<?xml version="1.0" encoding="UTF-8" standalone="no"?>
<svg
   height="40.75"
   viewBox="0 96 815 815"
   width="40.75"
   version="1.1"
   id="svg89"
   sodipodi:docname="exercise.svg"
   inkscape:version="1.2.2 (b0a8486, 2022-12-01)"
   xmlns:inkscape="http://www.inkscape.org/namespaces/inkscape"
   xmlns:sodipodi="http://sodipodi.sourceforge.net/DTD/sodipodi-0.dtd"
   xmlns="http://www.w3.org/2000/svg"
   xmlns:svg="http://www.w3.org/2000/svg">
  <defs
     id="defs93" />
  <sodipodi:namedview
     id="namedview91"
     pagecolor="#ffffff"
     bordercolor="#000000"
     borderopacity="0.25"
     inkscape:showpageshadow="2"
     inkscape:pageopacity="0.0"
     inkscape:pagecheckerboard="0"
     inkscape:deskcolor="#d1d1d1"
     showgrid="false"
     inkscape:zoom="12.583333"
     inkscape:cx="20.344371"
     inkscape:cy="20.423841"
     inkscape:window-width="1920"
     inkscape:window-height="928"
     inkscape:window-x="0"
     inkscape:window-y="25"
     inkscape:window-maximized="1"
     inkscape:current-layer="svg89" />
  <path
     d="m 753,399 -42,-42 45,-45 -157,-157 -45,45 -43,-43 30,-31 q 23,-23 57,-22.5 34,0.5 57,23.5 l 129,129 q 23,23 23,56.5 0,33.5 -23,56.5 z M 273,880 Q 250,903 216.5,903 183,903 160,880 L 17,737 Q 0,719.622 0,694.311 0,669 17,652 l 44,-44 43,42 -45,45 157,157 45,-45 42,43 z M 670,572 755,487 424,156 339,241 Z M 390,852 476,766 145,435 59,521 Z M 399,604 508,495 416,403 307,512 Z m 33,290 Q 415.066,911 390.033,911 365,911 348,894 L 17,563 Q 0,546.066 0,521.033 0,496 17,479 l 85,-86 Q 119.378,376 144.689,376 170,376 187,393 l 77,77 110,-110 -77,-77 Q 280,266.066 280,241.033 280,216 297,199 l 85,-86 Q 399.378,96 424.689,96 450,96 467,113 l 331,331 q 17,17.378 17,42.689 Q 815,512 798,529 l -86,85 Q 695.066,631 670.033,631 645,631 628,614 l -77,-77 -110,110 77,77 q 17,17.378 17,42.689 Q 535,792 518,809 Z"
     id="path87" />
</svg>
