<?xml version="1.0" encoding="UTF-8" standalone="no"?>
<svg
   height="36.650002"
   viewBox="0 -960 800 733.00003"
   width="40"
   version="1.1"
   id="svg32"
   sodipodi:docname="favorite.svg"
   inkscape:version="1.2.2 (b0a8486, 2022-12-01)"
   xmlns:inkscape="http://www.inkscape.org/namespaces/inkscape"
   xmlns:sodipodi="http://sodipodi.sourceforge.net/DTD/sodipodi-0.dtd"
   xmlns="http://www.w3.org/2000/svg"
   xmlns:svg="http://www.w3.org/2000/svg">
  <defs
     id="defs36" />
  <sodipodi:namedview
     id="namedview34"
     pagecolor="#ffffff"
     bordercolor="#000000"
     borderopacity="0.25"
     inkscape:showpageshadow="2"
     inkscape:pageopacity="0.0"
     inkscape:pagecheckerboard="0"
     inkscape:deskcolor="#d1d1d1"
     showgrid="false"
     inkscape:zoom="13.083333"
     inkscape:cx="20.025478"
     inkscape:cy="18.726115"
     inkscape:window-width="1920"
     inkscape:window-height="928"
     inkscape:window-x="0"
     inkscape:window-y="25"
     inkscape:window-maximized="1"
     inkscape:current-layer="svg32" />
  <path
     d="m 400,-227 -41,-37 Q 253.232,-361.121 184.116,-431.561 115,-502 74,-557.5 33,-613 16.5,-658 0,-703 0,-749 0,-839.155 60.5,-899.577 121,-960 210,-960 q 57,0 105.5,27 48.5,27 84.5,78 42,-54 89,-79.5 47,-25.5 101,-25.5 89,0 149.5,60.423 60.5,60.422 60.5,150.577 0,46 -16.5,91 Q 767,-613 726,-557.5 685,-502 615.884,-431.561 546.768,-361.121 441,-264 Z m 0,-79 Q 501.236,-398.995 566.618,-465.498 632,-532 670.5,-582 q 38.5,-50 54,-89.135 15.5,-39.136 15.5,-77.72 Q 740,-815 698,-857.5 656,-900 590.225,-900 538.701,-900 494.85,-868.5 451,-837 424,-780 h -49 q -26,-56 -69.85,-88 -43.851,-32 -95.375,-32 Q 144,-900 102,-857.5 60,-815 60,-748.684 60,-710 75.5,-670.5 q 15.5,39.5 54,90 38.5,50.5 104.5,116.5 66,66 166,158 z m 0,-297 z"
     id="path30" />
</svg>
