<?xml version="1.0" encoding="UTF-8" standalone="no"?>
<svg
   height="35.950001"
   viewBox="0 -960 860.99998 719.00002"
   width="43.049999"
   version="1.1"
   id="svg35"
   sodipodi:docname="heart_check.svg"
   inkscape:version="1.2.2 (b0a8486, 2022-12-01)"
   xmlns:inkscape="http://www.inkscape.org/namespaces/inkscape"
   xmlns:sodipodi="http://sodipodi.sourceforge.net/DTD/sodipodi-0.dtd"
   xmlns="http://www.w3.org/2000/svg"
   xmlns:svg="http://www.w3.org/2000/svg">
  <defs
     id="defs39" />
  <sodipodi:namedview
     id="namedview37"
     pagecolor="#ffffff"
     bordercolor="#000000"
     borderopacity="0.25"
     inkscape:showpageshadow="2"
     inkscape:pageopacity="0.0"
     inkscape:pagecheckerboard="0"
     inkscape:deskcolor="#d1d1d1"
     showgrid="false"
     inkscape:zoom="12.583333"
     inkscape:cx="22.013245"
     inkscape:cy="17.960265"
     inkscape:window-width="1920"
     inkscape:window-height="928"
     inkscape:window-x="0"
     inkscape:window-y="25"
     inkscape:window-maximized="1"
     inkscape:current-layer="svg35" />
  <path
     d="m 678,-447 -99,-99 42,-42 57,56 141,-141 42,42 z M 400,-617 Z m 0,376 -99,-91 Q 214,-412 156.5,-469 99,-526 64,-572 29,-618 14.5,-658.5 0,-699 0,-745 0,-835 60.5,-897.5 121,-960 210,-960 q 57,0 105.5,26.5 48.5,26.5 84.5,77.5 42,-54 89,-79 47,-25 101,-25 81,0 135.5,55 54.5,55 66.5,133 h -59 q -9,-55 -46.5,-91.5 Q 649,-900 590,-900 q -51,0 -95,31 -44,31 -71,88 h -49 q -26,-56 -70,-87.5 -44,-31.5 -95,-31.5 -66,0 -108,44.5 -42,44.5 -42,110.5 0,39 15.5,76 15.5,37 54,84 38.5,47 104.5,110 66,63 166,155 32,-29 60.5,-54 28.5,-25 56.5,-49 l 6.5,6.5 q 6.5,6.5 14.5,14 8,7.5 14.5,14 l 6.5,6.5 q -27,24 -56,49 -29,25 -62,55 z"
     id="path33" />
</svg>
