<?xml version="1.0" encoding="UTF-8" standalone="no"?>
<svg
   height="35.950001"
   viewBox="0 -960 880 719.00002"
   width="44"
   version="1.1"
   id="svg32"
   sodipodi:docname="heart_plus.svg"
   inkscape:version="1.2.2 (b0a8486, 2022-12-01)"
   xmlns:inkscape="http://www.inkscape.org/namespaces/inkscape"
   xmlns:sodipodi="http://sodipodi.sourceforge.net/DTD/sodipodi-0.dtd"
   xmlns="http://www.w3.org/2000/svg"
   xmlns:svg="http://www.w3.org/2000/svg">
  <defs
     id="defs36" />
  <sodipodi:namedview
     id="namedview34"
     pagecolor="#ffffff"
     bordercolor="#000000"
     borderopacity="0.25"
     inkscape:showpageshadow="2"
     inkscape:pageopacity="0.0"
     inkscape:pagecheckerboard="0"
     inkscape:deskcolor="#d1d1d1"
     showgrid="false"
     inkscape:zoom="13.083333"
     inkscape:cx="22.012739"
     inkscape:cy="17.961783"
     inkscape:window-width="1920"
     inkscape:window-height="928"
     inkscape:window-x="0"
     inkscape:window-y="25"
     inkscape:window-maximized="1"
     inkscape:current-layer="svg32" />
  <path
     d="m 400,-617 z m 0,376 -99,-91 Q 214,-412 156.5,-469 99,-526 64,-572 29,-618 14.5,-658.5 0,-699 0,-745 0,-835 60.5,-897.5 121,-960 210,-960 q 57,0 105.5,26.5 48.5,26.5 84.5,77.5 42,-54 89,-79 47,-25 101,-25 80.576,0 135.288,55 Q 780,-850 792,-772 h -59 q -9,-55 -46.5,-91.5 Q 649,-900 590,-900 q -51,0 -95,31 -44,31 -71,88 h -49 q -26,-56 -70,-87.5 -44,-31.5 -95,-31.5 -66,0 -108,44.5 -42,44.5 -42,110.5 0,39 15.5,76 15.5,37 53.888,84.067 38.388,47.068 104.5,110 Q 300,-412 400,-320 q 32,-29 60.5,-54 28.5,-25 56.5,-49 l 6.632,6.474 L 538,-402.5 552.368,-388.474 559,-382 q -27,24 -56,49 -29,25 -62,55 z M 690,-400 V -530 H 560 v -60 h 130 v -130 h 60 v 130 h 130 v 60 H 750 v 130 z"
     id="path30" />
</svg>
