<?xml version="1.0" encoding="UTF-8" standalone="no"?>
<svg
   height="44"
   viewBox="0 -960 880 880"
   width="44"
   version="1.1"
   id="svg191"
   sodipodi:docname="light_mode.svg"
   inkscape:version="1.2.2 (b0a8486, 2022-12-01)"
   xmlns:inkscape="http://www.inkscape.org/namespaces/inkscape"
   xmlns:sodipodi="http://sodipodi.sourceforge.net/DTD/sodipodi-0.dtd"
   xmlns="http://www.w3.org/2000/svg"
   xmlns:svg="http://www.w3.org/2000/svg">
  <defs
     id="defs195" />
  <sodipodi:namedview
     id="namedview193"
     pagecolor="#ffffff"
     bordercolor="#000000"
     borderopacity="0.25"
     inkscape:showpageshadow="2"
     inkscape:pageopacity="0.0"
     inkscape:pagecheckerboard="0"
     inkscape:deskcolor="#d1d1d1"
     showgrid="false"
     inkscape:zoom="13.083333"
     inkscape:cx="22.012739"
     inkscape:cy="22.012739"
     inkscape:window-width="1920"
     inkscape:window-height="928"
     inkscape:window-x="0"
     inkscape:window-y="25"
     inkscape:window-maximized="1"
     inkscape:current-layer="svg191" />
  <path
     d="m 439.765,-380 q 58.235,0 99.235,-40.765 41,-40.764 41,-99 0,-58.235 -40.765,-99.235 -40.764,-41 -99,-41 -58.235,0 -99.235,40.765 -41,40.764 -41,99 0,58.235 40.765,99.235 40.764,41 99,41 z m 0.235,60 q -83,0 -141.5,-58.5 Q 240,-437 240,-520 240,-603 298.5,-661.5 357,-720 440,-720 q 83,0 141.5,58.5 58.5,58.5 58.5,141.5 0,83 -58.5,141.5 Q 523,-320 440,-320 Z M 30,-490 Q 17.25,-490 8.625,-498.675 0,-507.351 0,-520.175 0,-533 8.625,-541.5 17.25,-550 30,-550 h 100 q 12.75,0 21.375,8.675 8.625,8.676 8.625,21.5 0,12.825 -8.625,21.325 -8.625,8.5 -21.375,8.5 z m 720,0 q -12.75,0 -21.375,-8.675 Q 720,-507.351 720,-520.175 720,-533 728.625,-541.5 737.25,-550 750,-550 h 100 q 12.75,0 21.375,8.675 8.625,8.676 8.625,21.5 0,12.825 -8.625,21.325 Q 862.75,-490 850,-490 Z M 439.825,-800 Q 427,-800 418.5,-808.625 410,-817.25 410,-830 v -100 q 0,-12.75 8.675,-21.375 8.676,-8.625 21.5,-8.625 12.825,0 21.325,8.625 8.5,8.625 8.5,21.375 v 100 q 0,12.75 -8.675,21.375 -8.676,8.625 -21.5,8.625 z m 0,720 Q 427,-80 418.5,-88.625 410,-97.25 410,-110 v -100 q 0,-12.75 8.675,-21.375 8.676,-8.625 21.5,-8.625 12.825,0 21.325,8.625 8.5,8.625 8.5,21.375 v 100 q 0,12.75 -8.675,21.375 -8.676,8.625 -21.5,8.625 z M 200,-718 143,-774 q -9,-9 -8.629,-21.603 0.37,-12.604 8.526,-21.5 8.896,-8.897 21.5,-8.897 12.603,0 21.603,9 l 56,57 q 8,9 8,21 0,12 -8,20.5 -8,8.5 -20.5,8.5 -12.5,0 -21.5,-8 z m 494,495 -56,-57 q -8,-9 -8,-21.375 0,-12.375 8.5,-20.625 8.5,-9 20.5,-9 12,0 21,9 l 57,56 q 9,9 8.629,21.603 -0.37,12.604 -8.526,21.5 -8.896,8.897 -21.5,8.897 Q 703,-214 694,-223 Z m -56,-495 q -9,-9 -9,-21 0,-12 9,-21 l 56,-57 q 9,-9 21.603,-8.629 12.604,0.37 21.5,8.526 8.897,8.896 8.897,21.5 0,12.603 -9,21.603 l -57,56 q -8,8 -20.364,8 -12.363,0 -21.636,-8 z M 142.897,-222.897 Q 134,-231.793 134,-244.397 134,-257 143,-266 l 57,-56 q 8.8,-9 20.9,-9 12.1,0 20.709,9 9.391,9 9.391,21 0,12 -9,21 l -56,57 q -9,9 -21.603,8.629 -12.604,-0.37 -21.5,-8.526 z M 440,-520 Z"
     id="path189" />
</svg>
