<?xml version="1.0" encoding="UTF-8" standalone="no"?>
<svg
   height="31.049999"
   viewBox="0 -960 880 620.99998"
   width="44"
   version="1.1"
   id="svg183"
   sodipodi:docname="person_add.svg"
   inkscape:version="1.2.2 (b0a8486, 2022-12-01)"
   xmlns:inkscape="http://www.inkscape.org/namespaces/inkscape"
   xmlns:sodipodi="http://sodipodi.sourceforge.net/DTD/sodipodi-0.dtd"
   xmlns="http://www.w3.org/2000/svg"
   xmlns:svg="http://www.w3.org/2000/svg">
  <defs
     id="defs187" />
  <sodipodi:namedview
     id="namedview185"
     pagecolor="#ffffff"
     bordercolor="#000000"
     borderopacity="0.25"
     inkscape:showpageshadow="2"
     inkscape:pageopacity="0.0"
     inkscape:pagecheckerboard="0"
     inkscape:deskcolor="#d1d1d1"
     showgrid="false"
     inkscape:zoom="13.083333"
     inkscape:cx="22.012739"
     inkscape:cy="15.057325"
     inkscape:window-width="1920"
     inkscape:window-height="928"
     inkscape:window-x="0"
     inkscape:window-y="25"
     inkscape:window-maximized="1"
     inkscape:current-layer="svg183" />
  <path
     d="M 690,-579 V -709 H 560 v -60 h 130 v -130 h 60 v 130 h 130 v 60 H 750 v 130 z m -370,-81 q -66,0 -108,-42 -42,-42 -42,-108 0,-66 42,-108 42,-42 108,-42 66,0 108,42 42,42 42,108 0,66 -42,108 -42,42 -108,42 z M 0,-339 v -94 Q 0,-468 17.5,-496.5 35,-525 68,-539 q 75,-33 133.338,-46.5 58.339,-13.5 118.5,-13.5 60.162,0 118.162,13.5 58,13.5 133,46.5 33,15 51,43 18,28 18,63 v 94 z m 60,-60 h 520 v -34 q 0,-16 -9,-30.5 -9,-14.5 -24,-21.5 -71,-33 -120,-43.5 -49,-10.5 -107,-10.5 -58,0 -107.5,10.5 Q 163,-518 92,-485 77,-478 68.5,-463.5 60,-449 60,-433 Z m 260,-321 q 39,0 64.5,-25.5 Q 410,-771 410,-810 410,-849 384.5,-874.5 359,-900 320,-900 q -39,0 -64.5,25.5 -25.5,25.5 -25.5,64.5 0,39 25.5,64.5 25.5,25.5 64.5,25.5 z m 0,-90 z m 0,411 z"
     id="path181" />
</svg>
