<?xml version="1.0" encoding="UTF-8" standalone="no"?>
<svg
   height="40"
   viewBox="0 -960 800 800"
   width="40"
   version="1.1"
   id="svg291"
   sodipodi:docname="scale.svg"
   inkscape:version="1.2.2 (b0a8486, 2022-12-01)"
   xmlns:inkscape="http://www.inkscape.org/namespaces/inkscape"
   xmlns:sodipodi="http://sodipodi.sourceforge.net/DTD/sodipodi-0.dtd"
   xmlns="http://www.w3.org/2000/svg"
   xmlns:svg="http://www.w3.org/2000/svg">
  <defs
     id="defs295" />
  <sodipodi:namedview
     id="namedview293"
     pagecolor="#ffffff"
     bordercolor="#000000"
     borderopacity="0.25"
     inkscape:showpageshadow="2"
     inkscape:pageopacity="0.0"
     inkscape:pagecheckerboard="0"
     inkscape:deskcolor="#d1d1d1"
     showgrid="false"
     inkscape:zoom="12.583333"
     inkscape:cx="20.02649"
     inkscape:cy="20.02649"
     inkscape:window-width="1920"
     inkscape:window-height="928"
     inkscape:window-x="0"
     inkscape:window-y="25"
     inkscape:window-maximized="1"
     inkscape:current-layer="svg291" />
  <path
     d="m 0,-160 q 0,-107 31,-185 31,-78 79,-129.5 48,-51.5 106.5,-80 Q 275,-583 330,-591 V -730 Q 193,-747 96.5,-809.5 0,-872 0,-960 h 800 q 0,88 -96.5,150.5 Q 607,-747 470,-730 v 139 q 55,8 113.5,36.5 58.5,28.5 106.5,80 48,51.5 79,129.5 31,78 31,185 H 560 v -60 H 737 Q 719,-372 626,-454.5 533,-537 400,-537 267,-537 174,-454.5 81,-372 63,-220 h 177 v 60 z m 400,-625 q 106,0 196,-36.5 90,-36.5 119,-78.5 H 85 q 29,42 119,78.5 90,36.5 196,36.5 z m 0,625 q -33,0 -56.5,-23.5 Q 320,-207 320,-240 q 0,-17 6.5,-31 6.5,-14 17.5,-25 24,-24 82.5,-50 58.5,-26 133.5,-54 -29,75 -54.5,133.5 -25.5,58.5 -49.5,82.5 -11,11 -25,17.5 -14,6.5 -31,6.5 z m 0,-625 z"
     id="path289" />
</svg>
