<?xml version="1.0" encoding="UTF-8" standalone="no"?>
<svg
   height="40.049999"
   viewBox="0 -960 880 800.99998"
   width="44"
   version="1.1"
   id="svg186"
   sodipodi:docname="visibility_off_FILL0_wght400_GRAD0_opsz48.svg"
   inkscape:version="1.2.2 (b0a8486, 2022-12-01)"
   xmlns:inkscape="http://www.inkscape.org/namespaces/inkscape"
   xmlns:sodipodi="http://sodipodi.sourceforge.net/DTD/sodipodi-0.dtd"
   xmlns="http://www.w3.org/2000/svg"
   xmlns:svg="http://www.w3.org/2000/svg">
  <defs
     id="defs190" />
  <sodipodi:namedview
     id="namedview188"
     pagecolor="#ffffff"
     bordercolor="#000000"
     borderopacity="0.25"
     inkscape:showpageshadow="2"
     inkscape:pageopacity="0.0"
     inkscape:pagecheckerboard="0"
     inkscape:deskcolor="#d1d1d1"
     showgrid="false"
     inkscape:zoom="12.583333"
     inkscape:cx="22.013245"
     inkscape:cy="19.231788"
     inkscape:window-width="1920"
     inkscape:window-height="928"
     inkscape:window-x="0"
     inkscape:window-y="25"
     inkscape:window-maximized="1"
     inkscape:current-layer="svg186" />
  <path
     d="m 589,-514 -44,-44 q 26,-71 -27,-118 -53,-47 -115,-24 l -44,-44 q 17,-11 38,-16 21,-5 43,-5 71,0 120.5,49.5 49.5,49.5 49.5,120.5 0,22 -5.5,43.5 Q 599,-530 589,-514 Z m 129,129 -40,-40 q 49,-36 85.5,-80.5 Q 800,-550 817,-595 767,-706 667,-770.5 567,-835 450,-835 q -42,0 -86,8 -44,8 -69,19 l -46,-47 q 35,-16 89.5,-28 54.5,-12 106.5,-12 143,0 261.5,81.5 Q 825,-732 880,-595 q -26,64 -67,117 -41,53 -95,93 z m 58,226 -168,-165 q -35,14 -79,21.5 -44,7.5 -89,7.5 -146,0 -265,-81.5 Q 56,-458 0,-595 20,-647 55.5,-696.5 91,-746 142,-791 L 16,-917 58,-960 815,-203 Z M 183,-749 q -37,27 -71.5,71 -34.5,44 -49.5,83 51,111 153.5,175.5 102.5,64.5 232.5,64.5 33,0 65,-4 32,-4 48,-12 l -64,-64 q -11,5 -27,7.5 -16,2.5 -30,2.5 -70,0 -120,-49 -50,-49 -50,-121 0,-15 2.5,-30 2.5,-15 7.5,-27 z m 305,142 z m -116,58 z"
     id="path184" />
</svg>
